<svg width="12" height="12" viewBox="0 0 12 12" fill="none" xmlns="http://www.w3.org/2000/svg">
<path d="M1.48355 2.9671C2.30289 2.9671 2.9671 2.30289 2.9671 1.48355C2.9671 0.664208 2.30289 0 1.48355 0C0.664208 0 0 0.664208 0 1.48355C0 2.30289 0.664208 2.9671 1.48355 2.9671Z" fill="#0A142F"/>
<path d="M2.71984 3.96094H0.247258C0.110772 3.96094 0 4.07171 0 4.2082V11.6259C0 11.7624 0.110772 11.8732 0.247258 11.8732H2.71984C2.85633 11.8732 2.9671 11.7624 2.9671 11.6259V4.2082C2.9671 4.07171 2.85633 3.96094 2.71984 3.96094Z" fill="#0A142F"/>
<path d="M10.0876 3.54445C9.03077 3.18246 7.70893 3.50044 6.91622 4.07061C6.88902 3.96429 6.7921 3.88517 6.67687 3.88517H4.20429C4.0678 3.88517 3.95703 3.99594 3.95703 4.13243V11.5502C3.95703 11.6867 4.0678 11.7974 4.20429 11.7974H6.67687C6.81336 11.7974 6.92413 11.6867 6.92413 11.5502V6.21929C7.3237 5.8751 7.83849 5.76532 8.25982 5.94434C8.66829 6.11692 8.9022 6.53825 8.9022 7.09953V11.5502C8.9022 11.6867 9.01297 11.7974 9.14946 11.7974H11.622C11.7585 11.7974 11.8693 11.6867 11.8693 11.5502V6.60155C11.8411 4.56958 10.8852 3.81742 10.0876 3.54445Z" fill="#0A142F"/>
</svg>
